SplineFontDB: 3.0
FontName: Runic_Sans_Plain
FullName: Runic Sans_Plain
FamilyName: Runic Sans Plain
Weight: Plain
Copyright: Created with FontForge 2.0 (http://fontforge.sf.net)\nDesigned by Sebastien Hayez: www.hayez.kudeta-graphic.com\nDistributed by VTF: www.velvetyne.fr
UComments: "2011-8-1: Created." 
Version: 001.000
ItalicAngle: 0
UnderlinePosition: -100
UnderlineWidth: 50
Ascent: 800
Descent: 200
LayerCount: 2
Layer: 0 0 "Arri+AOgA-re"  1
Layer: 1 0 "Avant"  0
NeedsXUIDChange: 1
XUID: [1021 112 18547 1081]
FSType: 0
OS2Version: 0
OS2_WeightWidthSlopeOnly: 0
OS2_UseTypoMetrics: 1
CreationTime: 1312203085
ModificationTime: 1369079885
OS2TypoAscent: 0
OS2TypoAOffset: 1
OS2TypoDescent: 0
OS2TypoDOffset: 1
OS2TypoLinegap: 90
OS2WinAscent: 0
OS2WinAOffset: 1
OS2WinDescent: 0
OS2WinDOffset: 1
HheadAscent: 0
HheadAOffset: 1
HheadDescent: 0
HheadDOffset: 1
MarkAttachClasses: 1
DEI: 91125
Encoding: UnicodeBmp
UnicodeInterp: none
NameList: Adobe Glyph List
DisplaySize: -24
AntiAlias: 1
FitToEm: 1
WinInfo: 54 54 23
BeginChars: 65536 446

StartChar: A
Encoding: 65 65 0
Width: 788
VWidth: 0
Flags: W
HStem: 0 21G<24.3027 137.195 650.477 763.318> 0 21G<24.3027 137.195 650.477 763.318> 707.137 94.618<142.044 343.07 444.503 647.801>
LayerCount: 2
Fore
SplineSet
60 0 m 1xa0
 24.3027 0 l 1
 343.07 707.088 l 1
 142.044 707.088 l 1
 121.301 743 l 1
 121 743 l 1
 92.6523 792.619 l 1
 87.374 801.755 l 1
 702.445 801.755 l 1
 696.648 791.697 l 1
 667.99 742.012 l 1
 668 742 l 1
 667.966 742 l 1
 647.801 707.088 l 1
 444.503 707.137 l 1
 763.318 0 l 1
 708.176 0 l 1
 698 0 l 1
 659.493 0 l 1
 531.055 284.898 l 1
 394.661 -13.1582 l 1
 257.469 286.768 l 1
 128.178 0 l 1
 72.9863 0 l 1
 60 0 l 1xa0
394.661 214.395 m 1
 479.342 399.422 l 1
 393.786 589.204 l 1
 309.083 401.339 l 1
 394.661 214.395 l 1
EndSplineSet
Validated: 1
EndChar

StartChar: a
Encoding: 97 97 1
Width: 787
Flags: W
HStem: -0.0546875 21G<24.001 136.867 650.363 763.229> -0.0546875 21G<24.001 136.867 650.363 763.229> 229.606 94.665<274.062 513.167> 707.343 94.6191<141.859 342.885 444.296 647.615>
LayerCount: 2
Fore
SplineSet
92.4678 792.826 m 1xb0
 87.1895 801.962 l 1
 702.264 801.962 l 1
 696.464 791.904 l 1
 647.615 707.295 l 1
 444.296 707.343 l 1
 763.229 -0.0546875 l 1
 659.38 -0.0546875 l 1
 555.838 229.606 l 1
 231.392 229.606 l 1
 127.851 -0.0546875 l 1
 24.001 -0.0546875 l 1
 342.885 707.271 l 1
 141.859 707.295 l 1
 92.4678 792.826 l 1xb0
274.062 324.271 m 1
 513.167 324.271 l 1
 393.603 589.434 l 1
 274.062 324.271 l 1
EndSplineSet
Validated: 1
EndChar

StartChar: B
Encoding: 66 66 2
Width: 658
VWidth: 0
Flags: W
HStem: -0.0185547 94.667<229.788 512.462> 528.292 94.667<287.369 512.462> 704.372 94.667<79.6465 135.122>
VStem: 135.122 94.666<94.6484 704.372> 512.462 94.668<94.6484 528.292>
LayerCount: 2
Fore
SplineSet
284.837 799.039 m 1
 252 742 l 1
 251.862 741.999 l 1
 229.788 704.372 l 1
 229.788 94.6484 l 1
 512.462 94.6484 l 1
 512.462 528.292 l 1
 287.369 528.292 l 1
 267.039 563.484 l 1
 261.738 572.667 l 1
 232.77 622.865 l 1
 232.77 622.959 l 1
 607.13 622.959 l 1
 607.13 -0.0185547 l 1
 135.122 -0.0185547 l 1
 135.122 704.372 l 1
 79.6465 704.372 l 1
 59.0862 740.001 l 1
 59 740 l 1
 59.0273 740.028 l 1
 54.0391 748.747 l 1
 25 799.039 l 1
 284.837 799.039 l 1
EndSplineSet
Validated: 1
EndChar

StartChar: C
Encoding: 67 67 3
Width: 533
VWidth: 0
Flags: W
HStem: -0.0947266 94.665<144.666 453.588> 703.372 94.667<144.666 415.461>
VStem: 50 94.666<94.5703 703.372>
LayerCount: 2
Fore
SplineSet
144.666 94.5703 m 1
 453.588 94.5703 l 1
 471.809 62.9943 l 2
 471.873 62.9943 471.936 63 472 63 c 2
 488.426 34.2207 l 1
 508.259 -0.0947266 l 1
 50 -0.0947266 l 1
 50 705.549 l 1
 83.6074 763.77 l 1
 103.394 798.039 l 1
 470.131 798.039 l 1
 440.971 747.747 l 1
 441.093 747.747 l 1
 435.791 738.611 l 1
 415.461 703.372 l 1
 144.666 703.372 l 1
 144.666 94.5703 l 1
EndSplineSet
Validated: 1
EndChar

StartChar: D
Encoding: 68 68 4
Width: 682
VWidth: 0
Flags: W
HStem: -0.0185547 94.667<255.04 537.738> 704.372 94.667<79.6475 537.738>
VStem: 160.374 94.666<94.6484 621.445> 537.738 94.668<94.6484 704.372>
LayerCount: 2
Fore
SplineSet
25 799.039 m 1
 632.406 799.039 l 1
 632.406 -0.0185547 l 1
 160.374 -0.0185547 l 1
 160.374 621.445 l 1
 169.485 626.698 l 1
 220 656 l 1
 220.002 655.87 l 1
 255.04 676.092 l 1
 255.04 94.6484 l 1
 537.738 94.6484 l 1
 537.738 704.372 l 1
 79.6475 704.372 l 1
 59.0873 739.999 l 1
 59 740 l 2
 58.9937 740.011 58.9874 740.022 59.0136 740.052 c 2
 30.8232 788.981 l 1
 25 799.039 l 1
EndSplineSet
Validated: 1
EndChar

StartChar: E
Encoding: 69 69 5
Width: 533
VWidth: 0
Flags: W
HStem: -0.0185547 94.667<144.667 453.588> 427.662 94.666<144.667 257.557> 704.372 94.667<144.667 417.307>
VStem: 50 94.667<94.6484 427.662 522.328 704.372>
LayerCount: 2
Fore
SplineSet
417.307 704.372 m 1
 144.667 704.372 l 1
 144.667 522.328 l 1
 312.203 522.328 l 1
 292.971 489.001 l 1
 293 489.001 l 2
 293 488.996 292.971 488.991 292.971 489.001 c 2
 257.557 427.662 l 1
 144.667 427.662 l 1
 144.667 94.6484 l 1
 453.588 94.6484 l 1
 474.736 57.9993 l 1
 475 58 l 1
 488.425 34.2988 l 1
 508.233 -0.0185547 l 1
 50 -0.0185547 l 1
 50 799.039 l 1
 471.977 799.039 l 1
 438 740 l 1
 437.886 740 l 1
 417.307 704.372 l 1
EndSplineSet
Validated: 5
EndChar

StartChar: F
Encoding: 70 70 6
Width: 473
VWidth: 0
Flags: W
HStem: 0 21G<50 144.666> 0 21G<50 144.666> 229.4 94.666<144.666 368.6> 707.372 94.667<144.666 417.755>
VStem: 50 94.666<0 229.4 324.066 707.372>
LayerCount: 2
Fore
SplineSet
50 802.039 m 1xb8
 472.427 802.039 l 1
 443.326 751.747 l 1
 443.387 751.747 l 1
 440.043 746.016 l 1
 438.109 742.611 l 1
 417.755 707.372 l 1
 144.666 707.372 l 1
 144.666 324.066 l 1
 368.6 324.066 l 1
 388.931 288.851 l 1
 391.721 284.007 l 2
 391.814 284.007 391.907 284 392 284 c 2
 423.246 229.4 l 1
 144.666 229.4 l 1
 144.666 0 l 1
 110 0 l 1
 100.291 0 l 1
 50 0 l 1
 50 802.039 l 1xb8
EndSplineSet
Validated: 1
EndChar

StartChar: G
Encoding: 71 71 7
Width: 526
VWidth: 0
Flags: W
HStem: 0 21G<247.38 342.049> 0 21G<247.38 342.049> 229.4 94.666<126.965 247.38> 707.372 94.667<114.776 247.38 342.049 470.629>
VStem: 247.38 94.669<0 229.4 324.066 707.372>
LayerCount: 2
Fore
SplineSet
114.776 802.039 m 1xb8
 525.275 802.039 l 1
 496.236 751.747 l 1
 493 746 l 1
 492.919 745.999 l 1
 470.629 707.372 l 1
 342.049 707.372 l 1
 342.049 0 l 1
 308 0 l 1
 297.674 0 l 1
 247.38 0 l 1
 247.38 229.4 l 1
 126.965 229.4 l 1
 50.0957 273.775 l 1
 50 279.691 l 1
 126.894 324.066 l 1
 247.38 324.066 l 1
 247.38 707.372 l 1
 60.1318 707.372 l 1
 80.132 742.001 l 1
 80 742 l 1
 114.776 802.039 l 1xb8
EndSplineSet
Validated: 1
EndChar

StartChar: z
Encoding: 122 122 8
Width: 742
VWidth: 0
Flags: W
HStem: 0.100586 94.667<206.287 646.227> 704.491 94.6672<210.333 515.562>
LayerCount: 2
Fore
SplineSet
717.795 0.100586 m 1
 25 0.100586 l 1
 515.562 704.491 l 1
 138.766 704.491 l 1
 210.333 799.158 l 1
 696.85 799.158 l 1
 206.287 94.7676 l 1
 646.227 94.7676 l 1
 717.795 0.100586 l 1
EndSplineSet
Validated: 1
EndChar

StartChar: g
Encoding: 103 103 9
Width: 657
VWidth: 0
Flags: W
LayerCount: 2
Fore
SplineSet
607.688 475.377 m 1
 607.688 799.421 l 1
 0.304688 799.421 l 1
 54.9531 704.754 l 1
 513.021 704.754 l 1
 513.021 475.377 l 1
 607.688 475.377 l 1
367.636 173.413 m 1
 513.021 173.413 l 1
 513.021 95.0049 l 1
 230.346 95.0049 l 1
 230.346 676.472 l 1
 135.68 621.826 l 1
 135.68 0.339844 l 1
 607.688 0.339844 l 1
 607.688 268.08 l 1
 313.014 268.08 l 1
 367.636 173.413 l 1
EndSplineSet
Validated: 9
EndChar

StartChar: H
Encoding: 72 72 10
Width: 601
VWidth: 0
Flags: W
HStem: -0.556641 21G<79.834 174.502 457.198 551.867> -0.556641 21G<79.834 174.502 457.198 551.867> 529.292 94.667<174.502 457.198> 780.039 20G<25 228.935> 780.039 20G<25 228.935>
VStem: 79.834 94.668<-0.556641 529.292 623.959 705.372> 457.198 94.669<-0.556641 529.292>
LayerCount: 2
Fore
SplineSet
174.502 623.959 m 1xb6
 551.867 623.959 l 1
 551.867 -0.556641 l 1
 507.492 -0.556641 l 1
 457.198 -0.556641 l 1
 457.198 529.292 l 1
 174.502 529.292 l 1
 174.502 -0.556641 l 1
 124.209 -0.556641 l 1
 79.834 -0.556641 l 1
 79.834 705.372 l 1
 79.6445 705.372 l 1
 38 777 l 1
 38.3134 776.968 l 1
 25 800.039 l 1
 228.935 800.039 l 1
 205.84 760.016 l 1
 206 760 l 1
 174.265 705.372 l 1
 174.502 705.372 l 1
 174.502 623.959 l 1xb6
EndSplineSet
Validated: 1
EndChar

StartChar: I
Encoding: 73 73 11
Width: 225
VWidth: 0
Flags: W
HStem: 0.0449219 20.9551G<79.623 120 120 120.004> 0.0449219 20.9551G<79.623 120 120 120.004> 780.641 20G<25 174.29> 780.641 20G<25 174.29>
VStem: 79.623 94.667<0.0449243 705.974>
LayerCount: 2
Fore
SplineSet
79.623 705.974 m 1x88
 54.0156 750.349 l 1
 54.1144 750.349 l 1
 25 800.641 l 1
 174.29 800.641 l 1
 174.29 0.0449219 l 1x68
 156.201 0.0299539 138.111 0.0149859 120.022 0.0224699 c 0
 120.014 0.0224699 120.007 0 120 0 c 2
 120 0.0449243 l 1
 79.623 0.0449219 l 1
 79.623 705.974 l 1x88
EndSplineSet
Validated: 33
EndChar

StartChar: J
Encoding: 74 74 12
Width: 219
VWidth: 0
Flags: W
HStem: 779.183 20G<19.3115 168.625> 779.183 20G<19.3115 168.625>
VStem: 73.959 94.666<-35.9785 704.516>
LayerCount: 2
Fore
SplineSet
19.3115 799.183 m 1xa0
 168.625 799.183 l 1
 168.625 -21.293 l 1
 91.6143 -316.724 l 1
 45.7959 -304.772 l 1
 35.0305 -301.982 l 2
 35.0224 -301.982 35.0143 -301.951 35.0125 -301.951 c 2
 0 -292.82 l 1
 73.959 -9.12793 l 1
 73.959 704.516 l 1
 52.3346 741.989 l 1
 52 742 l 1
 19.3115 799.183 l 1xa0
35.0125 -301.951 m 1
 35 -302 l 2
 35.0081 -302 35.0161 -301.982 35.0305 -301.982 c 0
EndSplineSet
Validated: 3
EndChar

StartChar: K
Encoding: 75 75 13
Width: 630
VWidth: 0
Flags: W
HStem: 0.0683594 20.9316G<79.6934 84.7446 110.001 110.006> 0.0683594 20.9316G<79.6934 84.7446 110.001 110.006> 429.264 94.666<174.361 323.389> 780.641 20G<25 174.361 368.828 584.125> 780.641 20G<25 174.361 368.828 584.125>
VStem: 79.6934 94.6676<0.0683722 429.264 523.93 705.974>
LayerCount: 2
Fore
SplineSet
406.436 474.916 m 1xb4
 629.518 -1.4707 l 1
 425.913 -1.4707 l 1
 444.657 31.001 l 1
 447.544 36.0089 l 2
 447.363 36.0089 447.181 36 447 36 c 2
 480.583 93.1963 l 1
 480.346 93.1963 l 1
 478.998 96.1309 l 1
 478.998 96.1777 l 1
 323.389 429.264 l 1
 174.361 429.264 l 1
 174.361 0.0683594 l 1x74
 152.92 0.0455865 131.479 0.0228137 110.038 0.0342001 c 0
 110.026 0.0342001 110.013 0 110 0 c 2
 110.001 0.0683722 l 1
 99.8982 0.0683722 89.7958 0.0683594 79.6934 0.0683594 c 1
 79.6934 705.974 l 1
 54.6662 749.263 l 1
 54.6309 749.266 l 1
 54.6393 749.28 l 1
 25 800.641 l 1
 174.361 800.641 l 1
 174.361 523.93 l 1
 325.33 523.93 l 1
 424.658 705.974 l 1
 423.522 705.974 l 1
 398.518 749.266 l 1
 398.459 749.266 l 2
 398.451 749.279 398.444 749.292 398.458 749.319 c 2
 386.129 770.75 l 1
 368.828 800.641 l 1
 584.125 800.641 l 1
 406.436 474.916 l 1xb4
397.892 750.349 m 2
 398.088 750.01 398.284 749.671 398.458 749.319 c 0
 398.47 749.297 398.483 749.275 398.518 749.266 c 2
54.6393 749.28 m 0
 54.644 749.272 54.6488 749.264 54.6662 749.263 c 0
EndSplineSet
Validated: 35
EndChar

StartChar: L
Encoding: 76 76 14
Width: 516
VWidth: 0
Flags: W
HStem: 0.000976562 94.667<174.288 437.249> 779.059 20G<25 174.288> 779.059 20G<25 174.288>
VStem: 79.6211 94.6669<94.668 704.392>
LayerCount: 2
Fore
SplineSet
174.288 94.668 m 1xd0
 437.249 94.668 l 1
 469.977 38.0092 l 1
 469.964 38 l 1
 472.087 34.3184 l 1
 491.896 0.000976562 l 1
 79.6211 0.000976562 l 1
 79.6211 704.392 l 1
 59.0752 739.997 l 1
 59 740 l 2
 59 740.004 59.0213 740.007 59.0213 740.027 c 2
 25 799.059 l 1
 174.288 799.059 l 1
 174.288 94.668 l 1xd0
59.0213 740.027 m 0
 59.0301 740.012 59.0388 739.997 59.0752 739.997 c 0
469.964 38 m 1
 470 38 l 2
 470 38.0057 469.977 38.0113 469.977 38.0092 c 0
EndSplineSet
Validated: 3
EndChar

StartChar: M
Encoding: 77 77 15
Width: 928
VWidth: 0
Flags: W
HStem: 0.00390625 21G<79.6465 174.312 431.404 526.094 783.635 878.301> 0.00390625 21G<79.6465 174.312 431.404 526.094 783.635 878.301> 251.605 47.333<174.312 431.404 526.094 783.635> 553.496 47.358<174.312 431.404 526.094 783.635> 756.225 44.375<38.302 50.6641 402.436 402.471 754.596 754.653>
VStem: 79.6465 94.6655<0.00390625 251.605 298.938 553.496 600.854 705.935> 431.404 94.69<0.00390625 251.605 298.938 553.496 600.854 705.935> 783.635 94.666<0.00390625 251.605 298.938 553.496 600.854 705.935>
LayerCount: 2
Fore
SplineSet
431.404 298.938 m 1x3f
 431.404 553.496 l 1
 174.312 553.496 l 1
 174.312 298.938 l 1
 431.404 298.938 l 1x3f
783.635 298.938 m 1
 783.635 553.496 l 1
 526.094 553.496 l 1
 526.094 298.938 l 1
 783.635 298.938 l 1
728.965 800.6 m 1
 878.301 800.6 l 1
 878.301 0.00390625 l 1
 848.01 0.00390625 l 1
 833.926 0.00390625 l 1
 783.635 0.00390625 l 1
 783.635 251.605 l 1
 526.094 251.605 l 1
 526.094 0.00390625 l 1
 495.779 0.00390625 l 1
 481.719 0.00390625 l 1
 431.404 0.00390625 l 1
 431.404 251.605 l 1
 174.312 251.605 l 1
 174.312 0.00390625 l 1
 144.021 0.00390625 l 1
 129.938 0.00390625 l 1
 79.6465 0.00390625 l 1xbf
 79.6465 705.935 l 1
 50.6641 756.225 l 1
 50.6074 756.225 l 2
 50.4036 756.578 50.1999 756.931 50.0391 757.31 c 2
 25 800.6 l 1
 174.312 800.6 l 1
 174.312 600.854 l 1
 431.404 600.854 l 1
 431.404 705.935 l 1
 431.499 705.935 l 1
 402.471 756.225 l 1
 402.436 756.225 l 1
 381.728 792.104 l 1
 376.829 800.6 l 1
 526.094 800.6 l 1
 526.094 600.854 l 1
 783.635 600.854 l 1
 783.635 705.935 l 1
 754.653 756.225 l 1
 754.596 756.225 l 1
 728.965 800.6 l 1
EndSplineSet
Validated: 1
EndChar

StartChar: m
Encoding: 109 109 16
Width: 1005
VWidth: 0
Flags: W
HStem: 0.249023 21G<154.765 199.14 199.14 249.432 836.294 880.669 880.669 930.961> 0.249023 21G<154.765 199.14 199.14 249.432 836.294 880.669 880.669 930.961> 780.347 20G<100 249.432 781.646 930.961> 780.347 20G<100 249.432 781.646 930.961>
VStem: 154.765 94.667<0.249023 477.557 654.395 705.681> 836.294 94.667<0.249023 467.429 657.472 705.681>
LayerCount: 2
Fore
SplineSet
880.669 0.249023 m 1xac
 836.294 0.249023 l 1
 836.294 467.429 l 1
 560.341 -12.9102 l 1
 249.432 477.557 l 1
 249.432 0.249023 l 1
 199.14 0.249023 l 1
 154.765 0.249023 l 1
 154.765 705.681 l 1
 154.67 705.681 l 1
 100 800.347 l 1
 249.432 800.347 l 1
 249.432 654.395 l 1
 556.365 170.174 l 1
 836.294 657.472 l 1
 836.294 705.681 l 1
 836.341 705.681 l 1
 781.646 800.347 l 1
 930.961 800.347 l 1
 930.961 0.249023 l 1
 880.669 0.249023 l 1xac
EndSplineSet
Validated: 1
EndChar

StartChar: N
Encoding: 78 78 17
Width: 601
VWidth: 0
Flags: W
HStem: -0.105469 21G<79.6934 124.068 124.068 174.36> -0.105469 21G<79.6934 124.068 124.068 174.36> 780.49 20G<25 174.36 402.152 551.702> 780.49 20G<25 174.36 402.152 551.702>
VStem: 79.6934 94.6666<-0.0217479 153.396 255.188 705.823> 457.035 94.667<143.527 705.823>
LayerCount: 2
Fore
SplineSet
402.152 800.49 m 1xac
 551.702 800.49 l 1
 551.702 4.34375 l 1
 174.36 153.396 l 1
 174.36 -0.105469 l 1
 124.068 -0.0217479 l 1
 124.068 -0.105469 l 1
 79.6934 -0.105469 l 1
 79.6934 705.823 l 1
 79.6465 705.823 l 1
 54.0391 750.198 l 1
 54.2345 750.198 l 1
 25 800.49 l 1
 174.36 800.49 l 1
 174.36 255.188 l 1
 457.035 143.527 l 1
 457.035 705.823 l 1
 456.822 705.823 l 1
 439.972 735.008 l 1
 431.167 750.198 l 1
 410.245 786.432 l 1
 402.152 800.49 l 1xac
EndSplineSet
Validated: 1
EndChar

StartChar: n
Encoding: 110 110 18
Width: 701
VWidth: 0
Flags: W
HStem: -0 21G<154.623 249.29> -0 21G<154.623 249.29> 780.596 20G<100 249.29 477.318 626.63> 780.596 20G<100 249.29 477.318 626.63>
VStem: 154.623 94.667<0 485.476 643.236 705.931> 531.965 94.665<266.345 705.931>
LayerCount: 2
Fore
SplineSet
125.607 756.221 m 1xac
 100 800.596 l 1
 249.29 800.596 l 1
 249.29 643.236 l 1
 531.965 266.345 l 1
 531.965 705.931 l 1
 531.988 705.931 l 1
 499 764 l 1
 477.318 800.596 l 1
 626.63 800.596 l 1
 626.63 -17.6553 l 1
 249.29 485.476 l 1
 249.29 -0 l 1
 204.915 0 l 1
 154.623 -0 l 1
 154.623 705.931 l 1
 125.607 756.221 l 1xac
EndSplineSet
Validated: 1
EndChar

StartChar: O
Encoding: 79 79 19
Width: 664
VWidth: 0
Flags: W
HStem: 0.0732422 94.667<79.623 282.871 386.247 585.047> 705.388 94.667<94.2012 280.576 389.017 570.16>
LayerCount: 2
Fore
SplineSet
633.896 10.1094 m 1
 639.693 0.0732422 l 1
 332.24 0.0732422 l 1
 331.506 -1.22754 l 1
 330.867 0.0732422 l 1
 25 0.0732422 l 1
 30.2764 9.18555 l 1
 50.6074 44.4482 l 1
 50.9556 44.4482 l 1
 79.623 94.7402 l 1
 282.871 94.7402 l 1
 114.152 427.612 l 1
 280.576 705.388 l 1
 94.2012 705.388 l 1
 74.189 740.002 l 1
 74 740 l 1
 39.5078 800.055 l 1
 624.807 800.055 l 1
 594 746 l 1
 593.596 745.995 l 1
 570.16 705.388 l 1
 389.017 705.388 l 1
 576.078 427.777 l 1
 386.247 94.7402 l 1
 585.047 94.7402 l 1
 613.867 44.4482 l 1
 614.086 44.4482 l 1
 633.896 10.1094 l 1
336.312 614.224 m 1
 222.237 423.778 l 1
 336.405 198.495 l 1
 464.726 423.612 l 1
 336.312 614.224 l 1
EndSplineSet
Validated: 1
EndChar

StartChar: P
Encoding: 80 80 20
Width: 601
VWidth: 0
Flags: W
HStem: 0.223633 21G<25 174.834> 0.223633 21G<25 174.834> 176.28 94.667<232.935 457.508> 704.591 94.667<174.834 457.508>
VStem: 80.167 94.667<94.8906 704.591> 457.508 94.668<270.947 704.591>
LayerCount: 2
Fore
SplineSet
552.176 799.258 m 1xbc
 552.176 176.28 l 1
 178.288 176.28 l 1
 207.52 226.572 l 1
 207.304 226.572 l 1
 225.978 258.9 l 1
 232.935 270.947 l 1
 457.508 270.947 l 1
 457.508 704.591 l 1
 174.834 704.591 l 1
 174.834 0.223633 l 1
 25 0.223633 l 1
 50.6074 44.5986 l 1
 50.7866 44.5986 l 1
 79.6465 94.8906 l 1
 80.167 94.8906 l 1
 80.167 799.258 l 1
 552.176 799.258 l 1xbc
EndSplineSet
Validated: 1
EndChar

StartChar: Q
Encoding: 81 81 21
Width: 572
VWidth: 0
Flags: W
HStem: 0.124023 21G<372.199 521.984> 0.124023 21G<372.199 521.984> 176.181 94.667<144.667 427.318> 704.491 94.667<144.667 427.318>
VStem: 50 94.667<270.848 704.491> 427.318 94.666<94.791 176.181 270.848 704.491>
LayerCount: 2
Fore
SplineSet
50 799.158 m 1xbc
 521.984 799.158 l 1
 521.984 0.124023 l 1
 372.199 0.124023 l 1
 401.238 50.416 l 1
 405 57 l 1
 426.845 94.791 l 1
 427.318 94.791 l 1
 427.318 176.181 l 1
 50 176.181 l 1
 50 799.158 l 1xbc
144.667 704.491 m 1
 144.667 270.848 l 1
 427.318 270.848 l 1
 427.318 704.491 l 1
 144.667 704.491 l 1
EndSplineSet
Validated: 1
EndChar

StartChar: R
Encoding: 82 82 22
Width: 636
VWidth: 0
Flags: W
HStem: 0.100586 21G<416.377 635.104> 0.100586 21G<416.377 635.104> 352.308 94.643<174.361 324.787> 704.491 94.667<79.1973 79.6934 174.361 406.744>
VStem: 79.6934 94.6676<-2.9043 352.308 446.951 704.491> 406.744 94.69<588.406 704.491>
LayerCount: 2
Fore
SplineSet
416.377 0.100586 m 1xbc
 422.198 10.1582 l 1
 452 61.9822 l 1
 452.108 61.9822 l 1
 471.045 94.7676 l 1
 471.969 94.7676 l 1
 324.787 352.308 l 1
 174.361 352.308 l 1
 174.361 -2.9043 l 1
 124.068 -2.9043 l 1
 117 -2.9043 l 1
 79.6934 -2.9043 l 1
 79.6934 704.491 l 1
 79.1973 704.491 l 1
 46 761.991 l 1
 46.2694 761.991 l 1
 25 799.158 l 1
 501.434 799.158 l 1
 501.434 563.036 l 1
 406.887 399.499 l 1
 635.104 0.100586 l 1
 416.377 0.100586 l 1xbc
174.361 704.491 m 1
 174.361 446.951 l 1
 324.976 446.951 l 1
 406.744 588.406 l 1
 406.744 704.491 l 1
 174.361 704.491 l 1
EndSplineSet
Validated: 1
EndChar

StartChar: S
Encoding: 83 83 23
Width: 843
VWidth: 0
Flags: W
HStem: 0.115234 94.6651<209.031 623.389> 704.292 94.667<264.743 573.073>
LayerCount: 2
Fore
SplineSet
528.626 456.834 m 1
 376.378 633.057 l 1
 451.095 633.057 l 1
 459 633.057 l 1
 517.052 633.057 l 1
 573.073 704.292 l 1
 344.428 704.292 l 1
 264.743 704.292 l 1
 818.212 0.115234 l 1
 25 0.115234 l 1
 314.892 405.666 l 1
 446.124 251.998 l 1
 398.554 251.998 l 1
 379.904 251.998 l 1
 367 251.998 l 1
 321.447 251.998 l 1
 318.894 248.496 l 1
 318.277 248.496 l 1
 318.56 247.999 l 1
 209.031 94.7803 l 1
 623.389 94.7803 l 1
 69.9189 798.959 l 1
 767.896 798.959 l 1
 528.626 456.834 l 1
EndSplineSet
Validated: 1
EndChar

StartChar: T
Encoding: 84 84 24
Width: 661
VWidth: 0
Flags: W
HStem: 0.107422 21G<283.559 378.225> 0.107422 21G<283.559 378.225> 707.479 94.667<79.6465 283.559 378.225 581.973>
VStem: 283.559 94.666<0.107422 707.479>
LayerCount: 2
Fore
SplineSet
25 802.146 m 1xb0
 636.664 802.146 l 1
 607.331 751.854 l 1
 607.602 751.854 l 1
 581.973 707.479 l 1
 378.225 707.479 l 1
 378.225 0.107422 l 1
 283.559 0.107422 l 1
 283.559 707.479 l 1
 79.6465 707.479 l 1
 57.3989 745.996 l 1
 57 745.996 l 1
 25 802.146 l 1xb0
EndSplineSet
Validated: 1
EndChar

StartChar: U
Encoding: 85 85 25
Width: 652
VWidth: 0
Flags: W
HStem: 0.100586 94.667<174.359 507.351> 779.158 20G<25 174.359 452.35 602.018> 779.158 20G<25 174.359 452.35 602.018>
VStem: 79.6934 94.6656<94.7676 704.491> 507.351 94.667<94.7676 704.491>
LayerCount: 2
Fore
SplineSet
452.35 799.158 m 1xd8
 602.018 799.158 l 1
 602.018 0.100586 l 1
 79.6934 0.100586 l 1
 79.6934 704.491 l 1
 50.7319 754.783 l 1
 50.6309 754.783 l 1
 25 799.158 l 1
 174.359 799.158 l 1
 174.359 94.7676 l 1
 507.351 94.7676 l 1
 507.351 704.491 l 1
 507.043 704.491 l 1
 483.048 745.996 l 1
 483 746 l 2
 483 746.004 483.01 746.008 483.01 746.021 c 2
 452.35 799.158 l 1xd8
EndSplineSet
Validated: 1
EndChar

StartChar: V
Encoding: 86 86 26
Width: 690
VWidth: 0
Flags: W
HStem: 0.0283203 94.6651<192.962 305.048 384.946 497.056> 778.186 20G<25 217.692 472.561 664.993> 778.186 20G<25 217.692 472.561 664.993>
LayerCount: 2
Fore
SplineSet
496.938 94.9072 m 1x80
 495.422 94.9072 l 1
 495.541 94.6934 l 1
 497.056 94.6934 l 1
 496.938 94.9072 l 1x80
495.208 758.976 m 1
 472.561 798.186 l 1
 664.993 798.186 l 1
 514.711 407.709 l 1
 384.946 94.6934 l 1
 495.541 94.6934 l 1
 497.056 94.6934 l 1
 522.685 50.3184 l 1
 526.094 44.4033 l 1
 551.7 0.0283203 l 1
 550.211 0.0283203 l 1
 345.729 0.0283203 l 1
 345.02 -1.7002 l 1
 344.31 0.0283203 l 1
 138.315 0.0283203 l 1
 163.923 44.4033 l 1
 163.923 44.4033 l 1
 167.33 50.3184 l 1
 167.33 50.3184 l 1
 192.962 94.6934 l 1
 305.048 94.6934 l 1
 175.756 406.598 l 1
 25 798.186 l 1
 217.692 798.186 l 1xc0
 197.945 763.997 l 1
 198 764 l 2
 197.994 763.99 197.988 763.98 197.963 763.981 c 2
 163.022 703.519 l 1
 162.905 703.519 l 1
 263.631 441.742 l 1
 345.02 245.521 l 1
 426.812 442.854 l 1
 527.111 703.519 l 1
 527.23 703.519 l 1
 495 759 l 1
 495.208 758.976 l 1
EndSplineSet
Validated: 5
EndChar

StartChar: W
Encoding: 87 87 27
Width: 1144
VWidth: 0
Flags: W
LayerCount: 2
Fore
SplineSet
1008 0 m 25,0,-1
108 0 m 25,1,-1
 498 0 l 25,2,-1
112 0 m 25,3,-1
 165.566 94.6934 l 1,4,-1
 280.09 94.6934 l 1,5,-1
 150.751 406.598 l 1,6,-1
 0.0175781 798.186 l 1,7,-1
 192.712 798.186 l 1,8,-1
 138.042 703.519 l 1,9,-1
 137.898 703.519 l 1,10,-1
 238.649 441.742 l 1,11,-1
 322.05 240.599 l 1,12,-1
 532.896 703.519 l 1,13,-1
 418.374 703.519 l 1,14,-1
 363.679 798.186 l 1,15,-1
 778.367 798.186 l 1,16,-1
 723.697 703.519 l 1,17,-1
 611.28 703.519 l 1,18,-1
 820.802 242.611 l 1,19,-1
 1004.38 703.519 l 1,20,-1
 1004.05 703.519 l 1,21,-1
 949.36 798.186 l 1,22,-1
 1143.99 798.186 l 1,23,-1
 863.377 94.5684 l 1,24,-1
 950.12 94.5684 l 9,25,-1
 1004.76 -0.0986328 l 1,26,-1
 644.556 -0.0986328 l 1,27,-1
 699.202 94.5684 l 1,28,-1
 784.448 94.5684 l 1,29,-1
 572.042 561.093 l 1,30,-1
 359.632 94.6934 l 1,31,-1
 440.667 94.6934 l 1,32,-1
 495.314 0.0283203 l 1,33,-1
 110.919 0.0283203 l 1,34,-1
EndSplineSet
Validated: 3
EndChar

StartChar: X
Encoding: 88 88 28
Width: 734
VWidth: 0
Flags: W
LayerCount: 2
Fore
SplineSet
186.991 94.5684 m 1
 186.659 94.5684 l 1
 355.143 336.441 l 1
 540.879 94.5684 l 1
 540.642 94.5684 l 1
 469.121 -0.0986328 l 1
 732.934 -0.0986328 l 1
 411.919 417.997 l 1
 677.246 798.959 l 1
 423.894 798.959 l 1
 428.249 793.185 l 1
 457.453 754.584 l 1
 457.597 754.569 l 1
 495.462 704.292 l 1
 495.959 704.292 l 1
 351.403 496.76 l 1
 192.055 704.292 l 1
 192.174 704.292 l 1
 230.182 754.584 l 1
 238 765 l 1
 259.363 793.185 l 1
 263.718 798.959 l 1
 0 798.959 l 1
 294.65 415.228 l 1
 5.37207 -0.0986328 l 1
 258.583 -0.0986328 l 1
 186.991 94.5684 l 1
EndSplineSet
Validated: 9
EndChar

StartChar: Y
Encoding: 89 89 29
Width: 601
VWidth: 0
Flags: W
HStem: 0.249023 21G<439.861 552.104> 0.249023 21G<439.861 552.104> 176.353 94.667<174.739 457.438> 777.863 20G<25 174.739 402.768 552.104>
VStem: 80.0723 94.6667<271.02 703.196> 457.438 94.666<94.916 176.353 271.02 703.196>
LayerCount: 2
Fore
SplineSet
402.768 797.863 m 1xbc
 552.104 797.863 l 1
 552.104 0.249023 l 1
 451.402 0.249023 l 1
 430.191 37.0069 l 2
 430.127 37.0069 430.064 37 430 37 c 2
 402.885 84.3369 l 1
 396.805 94.916 l 1
 457.438 94.916 l 1
 457.438 176.353 l 1
 80.0723 176.353 l 1
 80.0723 703.196 l 1
 79.6465 703.196 l 1
 45 763 l 1
 45.1198 762.999 l 1
 25 797.863 l 1
 174.739 797.863 l 1
 174.739 271.02 l 1
 457.438 271.02 l 1
 457.438 703.196 l 1
 424.024 760.989 l 2
 424.02 760.995 424.017 761.001 424 761 c 2
 424.034 761.001 l 1
 408.92 787.166 l 1
 402.768 797.863 l 1xbc
EndSplineSet
Validated: 1
EndChar

StartChar: Z
Encoding: 90 90 30
Width: 742
VWidth: 0
Flags: W
HStem: 0.100586 94.667<206.287 646.227> 704.491 94.6672<210.333 515.562>
LayerCount: 2
Fore
SplineSet
717.795 0.100586 m 1
 25 0.100586 l 1
 515.562 704.491 l 1
 138.766 704.491 l 1
 210.333 799.158 l 1
 696.85 799.158 l 1
 206.287 94.7676 l 1
 646.227 94.7676 l 1
 717.795 0.100586 l 1
EndSplineSet
Validated: 1
EndChar

StartChar: ampersand
Encoding: 38 38 31
Width: 999
VWidth: 0
Flags: W
HStem: 4.95801 94.6904<194.994 497.549> 533.292 94.667<194.994 431.607> 636.691 68.233<832.998 875.979> 657.589 68.232<561.283 607.312> 657.589 47.335<607.312 832.998> 709.372 94.667<194.994 458.781>
VStem: 100.326 94.668<99.6484 533.292 627.959 709.372>
LayerCount: 2
Fore
SplineSet
832.998 657.589 m 1xca
 493.053 657.589 l 1xca
 561.283 725.821 l 1
 598.938 725.821 l 1
 606 725.821 l 1
 628.189 725.821 l 1xd2
 607.312 704.924 l 1
 921.467 704.924 l 1xca
 875.979 636.691 l 1
 843.98 636.691 l 1
 836 636.691 l 1
 819.059 636.691 l 1xe2
 832.998 657.589 l 1xca
429.672 533.292 m 1
 194.994 533.292 l 1
 194.994 99.6484 l 1
 497.549 99.6484 l 1
 564.928 222.62 l 1
 496.791 308.246 441.41 412.782 429.672 533.292 c 1
489.157 762.01 m 1
 490 762 l 1
 458.781 709.372 l 1
 194.994 709.372 l 1
 194.994 627.959 l 1
 522.02 627.959 l 1
 522.02 580.602 l 2
 522.043 260.581 927 48 924.518 43.8184 c 2
 899 -5 l 1
 898.761 -4.87331 l 1
 880.238 -39.8662 l 1
 870.582 -34.7314 747.256 31.8906 631.738 147.952 c 1
 552.502 4.95801 l 1
 100.326 4.95801 l 1
 100.326 804.039 l 1
 513.404 804.039 l 1xc6
 491.062 765.297 l 1
 489.157 762.01 l 1
EndSplineSet
Validated: 33
EndChar

StartChar: period
Encoding: 46 46 32
Width: 200
VWidth: 0
Flags: W
HStem: -0.0185547 94.667<50 150.629>
VStem: 50 100.629<-0.0185547 94.6484>
LayerCount: 2
Fore
SplineSet
150.629 26.2734 m 1
 150.629 -0.0185547 l 1
 50 -0.0185547 l 1
 50 26.2734 l 1
 50 44.3564 l 1
 50 94.6484 l 1
 150.629 94.6484 l 1
 150.629 44.3564 l 1
 150.629 26.2734 l 1
EndSplineSet
Validated: 1
EndChar

StartChar: colon
Encoding: 58 58 33
Width: 200
VWidth: 0
Flags: W
HStem: -0.0185547 94.667<50 150.629> 176.085 94.667<50 150.629>
VStem: 50 100.629<-0.0185547 94.6484 176.085 270.752>
LayerCount: 2
Fore
SplineSet
150.629 226.377 m 1
 150.629 176.085 l 1
 50 176.085 l 1
 50 226.377 l 1
 50 227.46 l 1
 50 270.752 l 1
 150.629 270.752 l 1
 150.629 227.46 l 1
 150.629 226.377 l 1
150.629 50.2734 m 1
 150.629 -0.0185547 l 1
 50 -0.0185547 l 1
 50 50.2734 l 1
 50 51.3564 l 1
 50 94.6484 l 1
 150.629 94.6484 l 1
 150.629 51.3564 l 1
 150.629 50.2734 l 1
EndSplineSet
Validated: 1
EndChar

StartChar: semicolon
Encoding: 59 59 34
Width: 251
VWidth: 0
Flags: W
HStem: -145.964 94.6652<0 63.8054> 181.085 94.667<75.4512 176.08>
VStem: 75.4512 100.629<-38.492 102.606 181.085 275.752>
LayerCount: 2
Fore
SplineSet
132.83 102.606 m 1
 173.121 102.606 l 1
 173.121 1.97656 l 2
 173.121 -39.1562 142.023 -145.964 0 -145.964 c 1
 0 -105.674 l 1
 0 -101.589 l 1
 0 -51.2988 l 1
 74.6699 -51.2988 78.4551 -6.92383 78.4551 1.97656 c 2
 78.4551 102.606 l 1
 128.746 102.606 l 1
 132.83 102.606 l 1
176.08 222.377 m 1
 176.08 181.085 l 1
 75.4512 181.085 l 1
 75.4512 222.377 l 1
 75.4512 225.46 l 1
 75.4512 275.752 l 1
 176.08 275.752 l 1
 176.08 225.46 l 1
 176.08 222.377 l 1
EndSplineSet
Validated: 1
EndChar

StartChar: comma
Encoding: 44 44 35
Width: 273
VWidth: 0
Flags: W
HStem: -145.964 94.6652<50 113.806>
VStem: 128.455 94.668<-35.5472 102.606>
LayerCount: 2
Fore
SplineSet
178.748 102.606 m 1
 184 102.606 l 1
 223.123 102.606 l 1
 223.123 1.97656 l 2
 223.123 -39.1562 192.023 -145.964 50 -145.964 c 1
 50 -105 l 1
 50 -101.589 l 1
 50 -51.2988 l 1
 124.67 -51.2988 128.455 -6.92383 128.455 1.97656 c 2
 128.455 102.606 l 1
 178.748 102.606 l 1
EndSplineSet
Validated: 1
EndChar

StartChar: exclam
Encoding: 33 33 36
Width: 322
VWidth: 0
Flags: W
HStem: 4.98145 44.375<122.211 222.842> 55.2734 44.375<122.211 222.842>
VStem: 122.211 100.631<4.98145 49.3564 55.2734 99.6484 178.104 709.372>
LayerCount: 2
Fore
SplineSet
122.211 55.2734 m 1
 122.211 99.6484 l 1
 222.842 99.6484 l 1
 222.842 55.2734 l 1
 122.211 55.2734 l 1
122.211 4.98145 m 1
 122.211 49.3564 l 1
 222.842 49.3564 l 1
 222.842 4.98145 l 1
 122.211 4.98145 l 1
219.859 178.104 m 1
 125.193 178.104 l 1
 125.193 709.372 l 1
 105.125 743.987 l 1
 70.4297 804.039 l 1
 219.859 804.039 l 1
 219.859 178.104 l 1
EndSplineSet
Validated: 1
EndChar

StartChar: question
Encoding: 63 63 37
Width: 675
VWidth: 0
Flags: W
HStem: 4.98145 94.6669<247.965 348.596>
VStem: 247.965 100.631<4.98145 99.6484>
LayerCount: 2
Fore
SplineSet
348.596 46.2734 m 1
 348.596 4.98145 l 1
 247.965 4.98145 l 1
 247.965 46.2734 l 1
 247.965 49.3564 l 1
 247.965 99.6484 l 1
 348.596 99.6484 l 1
 348.596 49.3564 l 1
 348.596 46.2734 l 1
384 204 m 1
 407.359 173.228 l 1
 183.307 173.228 l 1
 448.469 709.372 l 1
 194.668 709.372 l 1
 194.668 648.147 l 1
 325.402 595.607 l 1
 306.232 555.562 l 1
 306.077 555.626 l 1
 284.529 510.217 l 1
 100 588.53 l 1
 100 804.039 l 1
 600.906 804.039 l 1
 335.744 267.87 l 1
 373.722 217.603 l 1
384 204 m 1
 373.801 217.603 l 1
 384 204 l 1
EndSplineSet
Validated: 11
EndChar

StartChar: hyphen
Encoding: 45 45 38
Width: 500
VWidth: 0
Flags: W
HStem: 352.085 94.667<50 450.629>
LayerCount: 2
Fore
SplineSet
450.629 402.377 m 1
 450.629 352.085 l 1
 50 352.085 l 1
 50 402.377 l 1
 50 406.46 l 1
 50 446.752 l 1
 450.629 446.752 l 1
 450.629 406.46 l 1
 450.629 402.377 l 1
EndSplineSet
Validated: 1
EndChar

StartChar: zero
Encoding: 48 48 40
Width: 597
VWidth: 0
Flags: W
HStem: 0.615234 94.2041<143.63 452.146> 707.048 94.204<143.63 452.146>
VStem: 49.4258 94.2042<94.8193 707.048> 452.146 94.204<94.8193 707.048>
LayerCount: 2
Fore
SplineSet
331.917 506.548 m 1
 363.124 475.341 l 1
 292.316 404.533 l 1
 266.424 430.424 l 1
 266 430 l 1
 225.703 471.121 l 1
 296.512 541.93 l 1
 331.713 506.344 l 1
 331.917 506.548 l 1
452.146 94.8193 m 1
 452.146 707.048 l 1
 143.63 707.048 l 1
 143.63 94.8193 l 1
 452.146 94.8193 l 1
49.4258 801.252 m 1
 546.35 801.252 l 1
 546.35 0.615234 l 1
 49.4258 0.615234 l 1
 49.4258 801.252 l 1
EndSplineSet
Validated: 1
EndChar

StartChar: one
Encoding: 49 49 41
Width: 322
VWidth: 0
Flags: W
HStem: 0 21G<177.465 243> 0 21G<177.465 243>
VStem: 177.465 94.203<0.615234 596.617>
LayerCount: 2
Fore
SplineSet
49.3008 596.947 m 1xa0
 271.668 820.799 l 1
 271.668 0.615234 l 1
 242.994 0.61523 l 2
 242.994 0.410155 243 0.205079 243 0 c 2
 177.465 0.615234 l 1
 177.465 592.284 l 1
 177.724 596.617 l 1
 175.486 596.947 l 1
 111.545 596.947 l 1
 99 596.947 l 1
 49.3008 596.947 l 1xa0
EndSplineSet
Validated: 1
EndChar

StartChar: two
Encoding: 50 50 42
Width: 569
VWidth: 0
Flags: W
HStem: -0.464844 94.2031<203.5 425.02> 701.822 94.203<138.406 379.379>
VStem: 379.379 94.203<585.74 701.822>
LayerCount: 2
Fore
SplineSet
475.066 122.565 m 1
 519.223 148.069 l 1
 519.223 -0.464844 l 1
 40.1055 -0.464844 l 1
 379.379 585.74 l 1
 379.379 701.822 l 1
 138.406 701.822 l 1
 138.406 635.243 l 1
 94.248 660.749 l 1
 94.248 660.881 l 1
 44.2012 689.646 l 1
 44.2012 796.025 l 1
 473.582 796.025 l 1
 473.582 560.446 l 1
 203.5 93.7383 l 1
 425.02 93.7383 l 1
 425.02 93.6904 l 1
 475.066 122.442 l 1
 475.066 122.565 l 1
EndSplineSet
Validated: 1
EndChar

StartChar: three
Encoding: 51 51 43
Width: 520
VWidth: 0
Flags: W
HStem: -0.598633 94.2041<144.139 312.528> 700.369 94.204<143.504 304.85>
LayerCount: 2
Fore
SplineSet
495.612 794.573 m 1
 209.093 420.326 l 1
 487.934 -0.598633 l 1
 49.9355 -0.598633 l 1
 49.9355 218.73 l 1
 82.5527 175.585 l 1
 99.9805 152.529 l 1
 107.967 142.007 l 1
 107.967 142.007 107.995 142.007 108 142 c 0
 108 141.976 107.998 141.952 107.998 141.929 c 2
 144.139 94.1475 l 1
 144.139 93.6055 l 1
 312.528 93.6055 l 1
 93.457 424.282 l 1
 304.85 700.369 l 1
 143.504 700.369 l 1
 143.504 700.062 l 1
 99.3457 641.657 l 1
 99.3457 642.238 l 1
 49.2998 580.283 l 1
 49.2998 794.573 l 1
 495.612 794.573 l 1
EndSplineSet
Validated: 1
EndChar

StartChar: four
Encoding: 52 52 44
Width: 544
VWidth: 0
Flags: W
HStem: -0.0712891 21G<312.504 461.133> -0.0712891 21G<312.504 461.133> 229.55 94.202<205.654 366.883>
VStem: 366.883 94.203<94.1797 229.55 323.752 553.986>
LayerCount: 2
Fore
SplineSet
366.883 323.752 m 1x30
 366.883 553.986 l 1
 205.654 323.752 l 1
 366.883 323.752 l 1x30
503.219 249.262 m 1
 512.85 232.611 l 1
 512.85 230.491 l 1
 461.133 230.491 l 1
 461.133 -0.0712891 l 1
 314.623 -0.0712891 l 1
 312.504 -0.0712891 l 1xb0
 341.535 50.0215 l 1
 341.213 50.0215 l 1
 366.693 94.1797 l 1
 367.118 94.1797 l 1
 366.883 229.55 l 1
 24.7129 229.55 l 1
 461.086 852.752 l 1
 461.086 324.766 l 1
 461.086 324.436 l 1
 461.086 322.74 l 1
 461.086 322.246 l 1
 485.132 280.584 l 1
 488.523 274.697 l 1
 503.219 249.262 l 1
EndSplineSet
Validated: 1
EndChar

StartChar: five
Encoding: 53 53 45
Width: 530
VWidth: 0
Flags: W
HStem: -0.0449219 94.2031<144.136 384.496> 702.242 94.203<195.9 383.648>
VStem: 101.603 93.755<592.33 702.242> 384.496 95.45<94.1582 254.258>
LayerCount: 2
Fore
SplineSet
195.358 592.33 m 1
 479.946 291.938 l 1
 479.946 -0.0449219 l 1
 49.9316 -0.0449219 l 1
 49.9316 149.056 l 1
 99.9775 120.11 l 1
 99.9775 120.136 l 1
 144.136 94.6299 l 1
 144.136 94.1582 l 1
 384.496 94.1582 l 1
 386.263 254.258 l 1
 101.603 554.695 l 1
 100.543 796.445 l 1
 477.851 796.445 l 1
 477.851 647.84 l 1
 439.009 670.274 l 2
 439.009 670.183 439 670.091 439 670 c 2
 383.648 702.242 l 1
 195.9 702.242 l 1
 195.358 592.33 l 1
EndSplineSet
Validated: 1
EndChar

StartChar: six
Encoding: 54 54 46
Width: 568
VWidth: 0
Flags: W
HStem: 0.239258 94.2041<143.203 424.472> 299.854 94.204<199.23 424.472>
VStem: 49 94.203<94.4434 701.185> 424.472 94.202<94.4434 299.854>
LayerCount: 2
Fore
SplineSet
145.464 299.854 m 1
 146.147 302.187 l 1
 184 368 l 1
 184.147 367.996 l 1
 199.23 394.058 l 1
 518.674 394.058 l 1
 518.674 0.239258 l 1
 49 0.239258 l 1
 49 795.389 l 1
 197.677 795.389 l 1
 174.371 755.04 l 1
 175 755 l 1
 143.274 701.185 l 1
 143.203 701.185 l 1
 143.203 94.4434 l 1
 424.472 94.4434 l 1
 424.472 299.854 l 1
 145.464 299.854 l 1
EndSplineSet
Validated: 1
EndChar

StartChar: seven
Encoding: 55 55 47
Width: 544
VWidth: 0
Flags: W
HStem: -0.0244141 21G<33.9248 147.827> -0.0244141 21G<33.9248 147.827> 705.207 94.204<119.202 370.609>
LayerCount: 2
Fore
SplineSet
25 799.411 m 1xa0
 519.944 799.411 l 1
 138.279 -0.0244141 l 1
 82.8398 -0.0244141 l 1
 72 -0.0244141 l 1
 33.9248 -0.0244141 l 1
 370.609 705.207 l 1
 119.202 705.207 l 1
 119.202 637.686 l 1
 75.0449 663.192 l 1
 75.0449 663.421 l 1
 25 692.088 l 1
 25 799.411 l 1xa0
EndSplineSet
Validated: 1
EndChar

StartChar: eight
Encoding: 56 56 48
Width: 722
VWidth: 0
Flags: W
HStem: -0.138672 94.2041<205.729 516.153> 700.854 94.179<206.06 513.516>
LayerCount: 2
Fore
SplineSet
417.805 398.602 m 1
 697.213 -0.138672 l 1
 439.755 -0.138672 l 1
 391.546 -0.138672 l 1
 25.3301 -0.138672 l 1
 302.899 398.412 l 1
 25 795.033 l 1
 365.875 795.033 l 1
 391.546 795.033 l 1
 693.916 795.033 l 1
 417.805 398.602 l 1
360.246 480.793 m 1
 513.516 700.854 l 1
 391.546 700.854 l 1
 365.875 700.854 l 1
 206.06 700.854 l 1
 360.246 480.793 l 1
360.481 316.268 m 1
 205.729 94.0654 l 1
 391.546 94.0654 l 1
 439.755 94.0654 l 1
 516.153 94.0654 l 1
 360.481 316.268 l 1
EndSplineSet
Validated: 1
EndChar

StartChar: nine
Encoding: 57 57 49
Width: 568
VWidth: 0
Flags: W
HStem: 0.239258 21G<369.999 518.676> 0.239258 21G<369.999 518.676> 401.571 94.202<143.204 368.444> 701.185 94.204<143.204 424.472>
VStem: 49 94.204<495.773 701.185> 424.472 94.204<94.4434 701.185>
LayerCount: 2
Fore
SplineSet
424.401 94.4434 m 1xbc
 424.472 94.4434 l 1
 424.472 701.185 l 1
 143.204 701.185 l 1
 143.204 495.773 l 1
 422.682 495.773 l 1
 421.528 493.466 l 1
 393.752 445.729 l 1
 393.974 445.729 l 1
 389.734 438.38 l 1
 368.444 401.571 l 1
 49 401.571 l 1
 49 795.389 l 1
 518.676 795.389 l 1
 518.676 0.239258 l 1
 369.999 0.239258 l 1
 395.528 44.3984 l 1
 395.8 44.3984 l 1
 424.401 94.4434 l 1xbc
EndSplineSet
Validated: 1
EndChar

StartChar: equal
Encoding: 61 61 51
Width: 500
VWidth: 0
Flags: W
HStem: 175.981 94.667<50 450.629> 352.085 94.667<50 450.629>
LayerCount: 2
Fore
SplineSet
450.629 392.377 m 1
 450.629 352.085 l 1
 50 352.085 l 1
 50 392.377 l 1
 50 396.46 l 1
 50 446.752 l 1
 450.629 446.752 l 1
 450.629 396.46 l 1
 450.629 392.377 l 1
450.629 217.273 m 1
 450.629 175.981 l 1
 50 175.981 l 1
 50 217.273 l 1
 50 220.356 l 1
 50 270.648 l 1
 450.629 270.648 l 1
 450.629 220.356 l 1
 450.629 217.273 l 1
EndSplineSet
Validated: 1
EndChar

StartChar: at
Encoding: 64 64 53
Width: 397
VWidth: 0
Flags: W
HStem: 376.585 44.494<94.0225 177.112 221.605 303.495> 484.275 44.494<142.569 254.948> 708.789 44.493<80.4336 174.915 222.579 318.139>
VStem: 177.112 44.493<44.1201 376.585>
LayerCount: 2
Fore
SplineSet
94.0225 421.079 m 1
 303.495 421.079 l 1
 275.003 484.275 l 1
 122.514 484.275 l 1
 94.0225 421.079 l 1
318.139 708.789 m 1
 222.579 708.789 l 1
 372.478 376.335 l 1
 346.549 376.335 l 1
 338 376.335 l 1
 323.668 376.335 l 1
 320.843 382.603 l 1
 317.367 376.585 l 1
 221.605 376.585 l 1
 221.605 44.1201 l 1
 206 44.1201 l 1
 200.749 44.1201 l 1
 177.112 44.1201 l 1
 177.112 376.585 l 1
 81.2734 376.585 l 1
 77.168 383.694 l 1
 73.8496 376.335 l 1
 55 376.335 l 1
 50.9678 376.335 l 1
 25.04 376.335 l 1
 174.915 708.789 l 1
 80.4336 708.789 l 1
 68.3867 729.645 l 1
 68.5298 729.645 l 1
 57.2197 748.988 l 1
 54.7393 753.282 l 1
 343.824 753.282 l 1
 341.098 748.555 l 1
 330.117 729.645 l 1
 330.175 729.645 l 1
 318.139 708.789 l 1
142.569 528.769 m 1
 254.948 528.769 l 1
 198.753 653.395 l 1
 142.569 528.769 l 1
EndSplineSet
Validated: 1
EndChar

StartChar: asciicircum
Encoding: 94 94 57
Width: 815
VWidth: 0
Flags: W
HStem: 896.085 94.6671
LayerCount: 2
Fore
SplineSet
608.629 990.752 m 1
 208 990.752 l 1
 208 896.085 l 1
 608.629 896.085 l 1
 608.629 990.752 l 1
EndSplineSet
Validated: 1
EndChar

StartChar: underscore
Encoding: 95 95 58
Width: 500
VWidth: 0
Flags: W
HStem: -0.0185547 94.667<50 450.629>
LayerCount: 2
Fore
SplineSet
50 94.6484 m 1
 450.629 94.6484 l 1
 450.629 -0.0185547 l 1
 50 -0.0185547 l 1
 50 94.6484 l 1
EndSplineSet
Validated: 1
EndChar

StartChar: grave
Encoding: 96 96 59
Width: 815
VWidth: 0
Flags: W
HStem: 896.085 94.6669<208 608.629>
LayerCount: 2
Fore
SplineSet
608.629 896.085 m 1
 208 896.085 l 1
 208 990.752 l 1
 608.629 990.752 l 1
 608.629 896.085 l 1
EndSplineSet
Validated: 1
EndChar

StartChar: b
Encoding: 98 98 60
Width: 658
VWidth: 0
Flags: W
HStem: -0.0185547 94.667<229.788 512.462> 528.292 94.667<287.369 512.462> 704.372 94.667<79.6465 135.122>
VStem: 135.122 94.666<94.6484 704.372> 512.462 94.668<94.6484 528.292>
LayerCount: 2
Fore
SplineSet
284.837 799.039 m 1
 252 742 l 1
 251.862 741.999 l 1
 229.788 704.372 l 1
 229.788 94.6484 l 1
 512.462 94.6484 l 1
 512.462 528.292 l 1
 287.369 528.292 l 1
 267.039 563.484 l 1
 261.738 572.667 l 1
 232.77 622.865 l 1
 232.77 622.959 l 1
 607.13 622.959 l 1
 607.13 -0.0185547 l 1
 135.122 -0.0185547 l 1
 135.122 704.372 l 1
 79.6465 704.372 l 1
 59.0862 740.001 l 1
 59 740 l 1
 59.0273 740.028 l 1
 54.0391 748.747 l 1
 25 799.039 l 1
 284.837 799.039 l 1
EndSplineSet
Validated: 1
EndChar

StartChar: c
Encoding: 99 99 61
Width: 533
VWidth: 0
Flags: W
HStem: -0.0947266 44.375<94.375 482.628> 50.1953 44.375<144.666 453.588> 703.372 44.375<144.666 415.461> 753.664 44.375<103.394 444.5>
VStem: 50 44.375<44.2803 705.549> 100.291 44.375<94.5703 703.372>
LayerCount: 2
Fore
SplineSet
144.666 94.5703 m 1
 453.588 94.5703 l 1
 471.809 62.9943 l 2
 471.873 62.9943 471.936 63 472 63 c 2
 488.426 34.2207 l 1
 508.259 -0.0947266 l 1
 50 -0.0947266 l 1
 50 705.549 l 1
 83.6074 763.77 l 1
 103.394 798.039 l 1
 470.131 798.039 l 1
 440.971 747.747 l 1
 441.093 747.747 l 1
 435.791 738.611 l 1
 415.461 703.372 l 1
 144.666 703.372 l 1
 144.666 94.5703 l 1
EndSplineSet
Validated: 1
EndChar

StartChar: d
Encoding: 100 100 62
Width: 682
VWidth: 0
Flags: W
HStem: -0.0185547 44.375<204.749 588.031> 50.2734 44.375<255.04 537.738> 704.372 44.375<79.6475 537.738> 754.664 44.375<50.6074 588.031>
VStem: 160.374 44.375<44.3564 621.445> 210.665 44.375<94.6484 650.482> 537.738 44.375<94.6484 704.372> 588.031 44.375<44.3564 754.664>
LayerCount: 2
Fore
SplineSet
25 799.039 m 1
 632.406 799.039 l 1
 632.406 -0.0185547 l 1
 160.374 -0.0185547 l 1
 160.374 621.445 l 1
 169.485 626.698 l 1
 220 656 l 1
 220.002 655.87 l 1
 255.04 676.092 l 1
 255.04 94.6484 l 1
 537.738 94.6484 l 1
 537.738 704.372 l 1
 79.6475 704.372 l 1
 59.0873 739.999 l 1
 59 740 l 2
 58.9937 740.011 58.9874 740.022 59.0136 740.052 c 2
 30.8232 788.981 l 1
 25 799.039 l 1
EndSplineSet
Validated: 1
EndChar

StartChar: e
Encoding: 101 101 63
Width: 533
VWidth: 0
Flags: W
HStem: -0.0185547 44.375<94.375 482.627> 50.2734 44.375<144.667 453.588> 427.662 44.375<144.667 257.557> 477.953 44.375<144.667 286.596> 704.372 44.375<144.667 417.307> 754.664 44.375<94.375 446.346>
VStem: 50 44.375<44.3564 754.664> 100.292 44.375<94.6484 427.662 472.037 477.953 522.328 704.372>
LayerCount: 2
Fore
SplineSet
417.307 704.372 m 1
 144.667 704.372 l 1
 144.667 522.328 l 1
 312.203 522.328 l 1
 292.971 489.001 l 1
 293 489.001 l 2
 293 488.996 292.971 488.991 292.971 489.001 c 2
 257.557 427.662 l 1
 144.667 427.662 l 1
 144.667 94.6484 l 1
 453.588 94.6484 l 1
 474.736 57.9993 l 1
 475 58 l 1
 488.425 34.2988 l 1
 508.233 -0.0185547 l 1
 50 -0.0185547 l 1
 50 799.039 l 1
 471.977 799.039 l 1
 438 740 l 1
 437.886 740 l 1
 417.307 704.372 l 1
EndSplineSet
Validated: 5
EndChar

StartChar: f
Encoding: 102 102 64
Width: 473
VWidth: 0
Flags: W
HStem: 0 21G<50 94.375 100.291 144.666> 0 21G<50 94.375 100.291 144.666> 229.4 44.375<144.666 397.64> 279.691 44.375<144.666 368.6> 707.372 44.375<144.666 417.755> 757.664 44.375<94.375 446.796>
VStem: 50 44.375<0 757.664> 100.291 44.375<0 229.4 273.775 279.691 324.066 707.372>
LayerCount: 2
Fore
SplineSet
50 802.039 m 1xbf
 472.427 802.039 l 1
 443.326 751.747 l 1
 443.387 751.747 l 1
 440.043 746.016 l 1
 438.109 742.611 l 1
 417.755 707.372 l 1
 144.666 707.372 l 1
 144.666 324.066 l 1
 368.6 324.066 l 1
 388.931 288.851 l 1
 391.721 284.007 l 2
 391.814 284.007 391.907 284 392 284 c 2
 423.246 229.4 l 1
 144.666 229.4 l 1
 144.666 0 l 1
 110 0 l 1
 100.291 0 l 1
 50 0 l 1
 50 802.039 l 1xbf
EndSplineSet
Validated: 1
EndChar

StartChar: h
Encoding: 104 104 65
Width: 601
VWidth: 0
Flags: W
HStem: -0.556641 21G<79.834 124.209 130.127 174.502 457.198 501.573 507.492 551.867> -0.556641 21G<79.834 124.209 130.127 174.502 457.198 501.573 507.492 551.867> 529.292 44.375<174.502 457.198> 579.584 44.375<174.502 507.492> 755.664 44.375<50.6074 203.328>
VStem: 79.834 44.375<-0.556641 705.372> 130.127 44.375<-0.556641 529.292 573.667 579.584 623.959 705.372> 457.198 44.375<-0.556641 529.292> 507.492 44.375<-0.556641 579.584>
LayerCount: 2
Fore
SplineSet
174.502 623.959 m 1xbf80
 551.867 623.959 l 1
 551.867 -0.556641 l 1
 507.492 -0.556641 l 1
 457.198 -0.556641 l 1
 457.198 529.292 l 1
 174.502 529.292 l 1
 174.502 -0.556641 l 1
 124.209 -0.556641 l 1
 79.834 -0.556641 l 1
 79.834 705.372 l 1
 79.6445 705.372 l 1
 38 777 l 1
 38.3134 776.968 l 1
 25 800.039 l 1
 228.935 800.039 l 1
 205.84 760.016 l 1
 206 760 l 1
 174.265 705.372 l 1
 174.502 705.372 l 1
 174.502 623.959 l 1xbf80
EndSplineSet
Validated: 1
EndChar

StartChar: i
Encoding: 105 105 66
Width: 225
VWidth: 0
Flags: W
HStem: 0.0449219 20.9551G<79.623 120 120 120.004> 0.0449219 20.9551G<79.623 120 120 120.004> 780.641 20G<25 174.29> 780.641 20G<25 174.29>
VStem: 79.623 94.667<0.0449243 705.974>
LayerCount: 2
Fore
SplineSet
79.623 705.974 m 1x88
 54.0156 750.349 l 1
 54.1144 750.349 l 1
 25 800.641 l 1
 174.29 800.641 l 1
 174.29 0.0449219 l 1x68
 156.201 0.0299539 138.111 0.0149859 120.022 0.0224699 c 0
 120.014 0.0224699 120.007 0 120 0 c 2
 120 0.0449243 l 1
 79.623 0.0449219 l 1
 79.623 705.974 l 1x88
EndSplineSet
Validated: 33
EndChar

StartChar: j
Encoding: 106 106 67
Width: 219
VWidth: 0
Flags: W
HStem: 754.808 44.375<44.9199 124.25>
VStem: 73.959 44.375<-35.9786 704.516> 124.154 44.4707<-42.4553 754.808>
LayerCount: 2
Fore
SplineSet
19.3115 799.183 m 1
 168.625 799.183 l 1
 168.625 -21.293 l 1
 91.6143 -316.724 l 1
 45.7959 -304.772 l 1
 35.0305 -301.982 l 2
 35.0224 -301.982 35.0143 -301.951 35.0125 -301.951 c 2
 0 -292.82 l 1
 73.959 -9.12793 l 1
 73.959 704.516 l 1
 52.3346 741.989 l 1
 52 742 l 1
 19.3115 799.183 l 1
35.0125 -301.951 m 1
 35 -302 l 2
 35.0081 -302 35.0161 -301.982 35.0305 -301.982 c 0
EndSplineSet
Validated: 3
EndChar

StartChar: k
Encoding: 107 107 68
Width: 630
VWidth: 0
Flags: W
HStem: 0.0683594 20.9316G<79.6934 84.7446 110.001 110.006> 0.0683594 20.9316G<79.6934 84.7446 110.001 110.006> 429.264 94.666<174.361 323.389> 780.641 20G<25 174.361 368.828 584.125> 780.641 20G<25 174.361 368.828 584.125>
VStem: 79.6934 94.6676<0.0683722 429.264 523.93 705.974>
LayerCount: 2
Fore
SplineSet
406.436 474.916 m 1xb4
 629.518 -1.4707 l 1
 425.913 -1.4707 l 1
 444.657 31.001 l 1
 447.544 36.0089 l 2
 447.363 36.0089 447.181 36 447 36 c 2
 480.583 93.1963 l 1
 480.346 93.1963 l 1
 478.998 96.1309 l 1
 478.998 96.1777 l 1
 323.389 429.264 l 1
 174.361 429.264 l 1
 174.361 0.0683594 l 1x74
 152.92 0.0455865 131.479 0.0228137 110.038 0.0342001 c 0
 110.026 0.0342001 110.013 0 110 0 c 2
 110.001 0.0683722 l 1
 99.8982 0.0683722 89.7958 0.0683594 79.6934 0.0683594 c 1
 79.6934 705.974 l 1
 54.6662 749.263 l 1
 54.6309 749.266 l 1
 54.6393 749.28 l 1
 25 800.641 l 1
 174.361 800.641 l 1
 174.361 523.93 l 1
 325.33 523.93 l 1
 424.658 705.974 l 1
 423.522 705.974 l 1
 398.518 749.266 l 1
 398.459 749.266 l 2
 398.451 749.279 398.444 749.292 398.458 749.319 c 2
 386.129 770.75 l 1
 368.828 800.641 l 1
 584.125 800.641 l 1
 406.436 474.916 l 1xb4
397.892 750.349 m 2
 398.088 750.01 398.284 749.671 398.458 749.319 c 0
 398.47 749.297 398.483 749.275 398.518 749.266 c 2
54.6393 749.28 m 0
 54.644 749.272 54.6488 749.264 54.6662 749.263 c 0
EndSplineSet
Validated: 35
EndChar

StartChar: l
Encoding: 108 108 69
Width: 516
VWidth: 0
Flags: W
HStem: 0.000976562 44.375<123.996 466.288> 50.293 44.375<174.288 437.249> 754.684 44.375<50.6064 129.913>
VStem: 79.6211 44.375<44.376 704.392> 129.913 44.375<94.668 754.684>
LayerCount: 2
Fore
SplineSet
174.288 94.668 m 1
 437.249 94.668 l 1
 469.977 38.0092 l 1
 469.964 38 l 1
 472.087 34.3184 l 1
 491.896 0.000976562 l 1
 79.6211 0.000976562 l 1
 79.6211 704.392 l 1
 59.0752 739.997 l 1
 59 740 l 2
 59 740.004 59.0213 740.007 59.0213 740.027 c 2
 25 799.059 l 1
 174.288 799.059 l 1
 174.288 94.668 l 1
59.0213 740.027 m 0
 59.0301 740.012 59.0388 739.997 59.0752 739.997 c 0
469.964 38 m 1
 470 38 l 2
 470 38.0057 469.977 38.0113 469.977 38.0092 c 0
EndSplineSet
Validated: 3
EndChar

StartChar: o
Encoding: 111 111 70
Width: 664
VWidth: 0
Flags: W
HStem: 0.0732422 94.667<79.623 282.871 386.247 585.047> 705.388 94.667<94.2012 280.576 389.017 570.16>
LayerCount: 2
Fore
SplineSet
633.896 10.1094 m 1
 639.693 0.0732422 l 1
 332.24 0.0732422 l 1
 331.506 -1.22754 l 1
 330.867 0.0732422 l 1
 25 0.0732422 l 1
 30.2764 9.18555 l 1
 50.6074 44.4482 l 1
 50.9556 44.4482 l 1
 79.623 94.7402 l 1
 282.871 94.7402 l 1
 114.152 427.612 l 1
 280.576 705.388 l 1
 94.2012 705.388 l 1
 74.189 740.002 l 1
 74 740 l 1
 39.5078 800.055 l 1
 624.807 800.055 l 1
 594 746 l 1
 593.596 745.995 l 1
 570.16 705.388 l 1
 389.017 705.388 l 1
 576.078 427.777 l 1
 386.247 94.7402 l 1
 585.047 94.7402 l 1
 613.867 44.4482 l 1
 614.086 44.4482 l 1
 633.896 10.1094 l 1
336.312 614.224 m 1
 222.237 423.778 l 1
 336.405 198.495 l 1
 464.726 423.612 l 1
 336.312 614.224 l 1
EndSplineSet
Validated: 1
EndChar

StartChar: p
Encoding: 112 112 71
Width: 601
VWidth: 0
Flags: W
HStem: 0.223633 21G<25 174.834> 0.223633 21G<25 174.834> 176.28 94.667<232.935 457.508> 704.591 94.667<174.834 457.508>
VStem: 80.167 94.667<94.8906 704.591> 457.508 94.668<270.947 704.591>
LayerCount: 2
Fore
SplineSet
552.176 799.258 m 1xbc
 552.176 176.28 l 1
 178.288 176.28 l 1
 207.52 226.572 l 1
 207.304 226.572 l 1
 225.978 258.9 l 1
 232.935 270.947 l 1
 457.508 270.947 l 1
 457.508 704.591 l 1
 174.834 704.591 l 1
 174.834 0.223633 l 1
 25 0.223633 l 1
 50.6074 44.5986 l 1
 50.7866 44.5986 l 1
 79.6465 94.8906 l 1
 80.167 94.8906 l 1
 80.167 799.258 l 1
 552.176 799.258 l 1xbc
EndSplineSet
Validated: 1
EndChar

StartChar: q
Encoding: 113 113 72
Width: 572
VWidth: 0
Flags: W
HStem: 0.124023 44.375<397.806 477.609> 176.181 44.375<94.375 427.318> 226.473 44.375<144.667 427.318> 704.491 44.375<144.667 427.318> 754.783 44.375<94.375 477.609>
VStem: 50 44.375<220.556 754.783> 100.292 44.375<270.848 704.491> 427.318 44.375<94.791 176.181 270.848 704.491> 477.609 44.375<44.499 754.783>
LayerCount: 2
Fore
SplineSet
50 799.158 m 1
 521.984 799.158 l 1
 521.984 0.124023 l 1
 372.199 0.124023 l 1
 401.238 50.416 l 1
 405 57 l 1
 426.845 94.791 l 1
 427.318 94.791 l 1
 427.318 176.181 l 1
 50 176.181 l 1
 50 799.158 l 1
144.667 704.491 m 1
 144.667 270.848 l 1
 427.318 270.848 l 1
 427.318 704.491 l 1
 144.667 704.491 l 1
EndSplineSet
Validated: 1
EndChar

StartChar: r
Encoding: 114 114 73
Width: 636
VWidth: 0
Flags: W
HStem: 0.100586 44.375<442.008 558.66> 352.308 44.375<174.385 324.787> 402.6 44.3516<174.385 324.976> 704.491 44.375<79.1973 79.6934 124.068 129.986 174.361 406.744> 754.783 44.375<50.3945 457.059>
VStem: 79.6934 44.375<-2.9043 704.491> 129.986 44.375<-2.9043 352.308 396.683 402.6 446.951 704.491> 406.744 44.3975<588.406 704.491> 457.059 44.375<574.939 754.783>
LayerCount: 2
Fore
SplineSet
416.377 0.100586 m 1
 422.198 10.1582 l 1
 452 61.9822 l 1
 452.108 61.9822 l 1
 471.045 94.7676 l 1
 471.969 94.7676 l 1
 324.787 352.308 l 1
 174.361 352.308 l 1
 174.361 -2.9043 l 1
 124.068 -2.9043 l 1
 117 -2.9043 l 1
 79.6934 -2.9043 l 1
 79.6934 704.491 l 1
 79.1973 704.491 l 1
 46 761.991 l 1
 46.2694 761.991 l 1
 25 799.158 l 1
 501.434 799.158 l 1
 501.434 563.036 l 1
 406.887 399.499 l 1
 635.104 0.100586 l 1
 416.377 0.100586 l 1
174.361 704.491 m 1
 174.361 446.951 l 1
 324.976 446.951 l 1
 406.744 588.406 l 1
 406.744 704.491 l 1
 174.361 704.491 l 1
EndSplineSet
Validated: 1
EndChar

StartChar: s
Encoding: 115 115 74
Width: 854
VWidth: 0
Flags: W
HStem: -1.15918 94.9434<222.581 632.817> 705.092 94.9434<273.138 593.179>
LayerCount: 2
Fore
SplineSet
593.179 705.092 m 1
 273.138 705.092 l 1
 828.213 -1.15918 l 1
 24.0039 -1.15918 l 1
 151.465 152.722 l 1
 222.581 93.7842 l 1
 632.817 93.7842 l 1
 77.7168 800.035 l 1
 777.727 800.035 l 1
 661.139 651.683 l 1
 593.179 705.092 l 1
EndSplineSet
Validated: 524289
EndChar

StartChar: t
Encoding: 116 116 75
Width: 661
VWidth: 0
Flags: W
HStem: 0.107422 21G<283.559 327.934 333.85 378.225> 0.107422 21G<283.559 327.934 333.85 378.225> 707.479 44.375<79.6465 283.559 327.934 333.85 378.225 581.973> 757.771 44.375<50.6318 611.033>
VStem: 283.559 44.375<0.107422 707.479> 333.85 44.375<0.107422 707.479>
LayerCount: 2
Fore
SplineSet
25 802.146 m 1xbc
 636.664 802.146 l 1
 607.331 751.854 l 1
 607.602 751.854 l 1
 581.973 707.479 l 1
 378.225 707.479 l 1
 378.225 0.107422 l 1
 283.559 0.107422 l 1
 283.559 707.479 l 1
 79.6465 707.479 l 1
 57.3989 745.996 l 1
 57 745.996 l 1
 25 802.146 l 1xbc
EndSplineSet
Validated: 1
EndChar

StartChar: u
Encoding: 117 117 76
Width: 652
VWidth: 0
Flags: W
HStem: 0.100586 44.375<124.068 557.643> 50.3926 44.375<174.359 507.351> 754.783 44.375<50.6309 129.984 477.98 557.643>
VStem: 79.6934 44.375<44.4756 704.491> 129.984 44.375<94.7676 754.783> 507.351 44.375<94.7676 704.491> 557.643 44.375<44.4756 754.783>
LayerCount: 2
Fore
SplineSet
452.35 799.158 m 1
 602.018 799.158 l 1
 602.018 0.100586 l 1
 79.6934 0.100586 l 1
 79.6934 704.491 l 1
 50.7319 754.783 l 1
 50.6309 754.783 l 1
 25 799.158 l 1
 174.359 799.158 l 1
 174.359 94.7676 l 1
 507.351 94.7676 l 1
 507.351 704.491 l 1
 507.043 704.491 l 1
 483.048 745.996 l 1
 483 746 l 2
 483 746.004 483.01 746.008 483.01 746.021 c 2
 452.35 799.158 l 1
EndSplineSet
Validated: 1
EndChar

StartChar: v
Encoding: 118 118 77
Width: 690
VWidth: 0
Flags: W
HStem: 0.0283203 44.375<163.923 344.31 345.729 524.604> 50.3184 44.375<192.962 305.048 384.946 495.541> 753.811 44.375<89.6572 192.062 498.191 600.36>
LayerCount: 2
Fore
SplineSet
496.938 94.9072 m 1
 495.422 94.9072 l 1
 495.541 94.6934 l 1
 497.056 94.6934 l 1
 496.938 94.9072 l 1
495.208 758.976 m 1
 472.561 798.186 l 1
 664.993 798.186 l 1
 514.711 407.709 l 1
 384.946 94.6934 l 1
 495.541 94.6934 l 1
 497.056 94.6934 l 1
 522.685 50.3184 l 1
 526.094 44.4033 l 1
 551.7 0.0283203 l 1
 550.211 0.0283203 l 1
 345.729 0.0283203 l 1
 345.02 -1.7002 l 1
 344.31 0.0283203 l 1
 138.315 0.0283203 l 1
 163.923 44.4033 l 1
 163.923 44.4033 l 1
 167.33 50.3184 l 1
 167.33 50.3184 l 1
 192.962 94.6934 l 1
 305.048 94.6934 l 1
 175.756 406.598 l 1
 25 798.186 l 1
 217.692 798.186 l 1
 197.945 763.997 l 1
 198 764 l 2
 197.994 763.99 197.988 763.98 197.963 763.981 c 2
 163.022 703.519 l 1
 162.905 703.519 l 1
 263.631 441.742 l 1
 345.02 245.521 l 1
 426.812 442.854 l 1
 527.111 703.519 l 1
 527.23 703.519 l 1
 495 759 l 1
 495.208 758.976 l 1
EndSplineSet
Validated: 5
EndChar

StartChar: w
Encoding: 119 119 78
Width: 1144
VWidth: 0
Flags: W
LayerCount: 2
Fore
SplineSet
1008 0 m 25,0,-1
108 0 m 25,1,-1
 498 0 l 25,2,-1
112 0 m 25,3,-1
 165.566 94.6934 l 1,4,-1
 280.09 94.6934 l 1,5,-1
 150.751 406.598 l 1,6,-1
 0.0175781 798.186 l 1,7,-1
 192.712 798.186 l 1,8,-1
 138.042 703.519 l 1,9,-1
 137.898 703.519 l 1,10,-1
 238.649 441.742 l 1,11,-1
 322.05 240.599 l 1,12,-1
 532.896 703.519 l 1,13,-1
 418.374 703.519 l 1,14,-1
 363.679 798.186 l 1,15,-1
 778.367 798.186 l 1,16,-1
 723.697 703.519 l 1,17,-1
 611.28 703.519 l 1,18,-1
 820.802 242.611 l 1,19,-1
 1004.38 703.519 l 1,20,-1
 1004.05 703.519 l 1,21,-1
 949.36 798.186 l 1,22,-1
 1143.99 798.186 l 1,23,-1
 863.377 94.5684 l 1,24,-1
 950.12 94.5684 l 9,25,-1
 1004.76 -0.0986328 l 1,26,-1
 644.556 -0.0986328 l 1,27,-1
 699.202 94.5684 l 1,28,-1
 784.448 94.5684 l 1,29,-1
 572.042 561.093 l 1,30,-1
 359.632 94.6934 l 1,31,-1
 440.667 94.6934 l 1,32,-1
 495.314 0.0283203 l 1,33,-1
 110.919 0.0283203 l 1,34,-1
EndSplineSet
Validated: 3
EndChar

StartChar: x
Encoding: 120 120 79
Width: 734
VWidth: 0
Flags: W
HStem: -0.0986328 44.375<90.3604 225.022 502.656 642.929> 754.584 44.375<90.0039 230.182 457.453 592.26>
LayerCount: 2
Fore
SplineSet
186.991 94.5684 m 1
 186.659 94.5684 l 1
 355.143 336.441 l 1
 540.879 94.5684 l 1
 540.642 94.5684 l 1
 469.121 -0.0986328 l 1
 732.934 -0.0986328 l 1
 411.919 417.997 l 1
 677.246 798.959 l 1
 423.894 798.959 l 1
 428.249 793.185 l 1
 457.453 754.584 l 1
 457.597 754.569 l 1
 495.462 704.292 l 1
 495.959 704.292 l 1
 351.403 496.76 l 1
 192.055 704.292 l 1
 192.174 704.292 l 1
 230.182 754.584 l 1
 238 765 l 1
 259.363 793.185 l 1
 263.718 798.959 l 1
 0 798.959 l 1
 294.65 415.228 l 1
 5.37207 -0.0986328 l 1
 258.583 -0.0986328 l 1
 186.991 94.5684 l 1
EndSplineSet
Validated: 9
EndChar

StartChar: y
Encoding: 121 121 80
Width: 601
VWidth: 0
Flags: W
HStem: 0.249023 44.375<451.402 507.729> 50.541 44.375<422.41 457.438> 176.353 44.375<124.447 457.438> 226.645 44.375<174.739 457.438> 753.488 44.375<50.6084 130.364 428.374 507.729>
VStem: 80.0723 44.375<220.728 703.196> 130.364 44.375<271.02 753.488> 457.438 44.375<94.916 176.353 220.728 226.645 271.02 703.196> 507.729 44.375<44.624 753.488>
LayerCount: 2
Fore
SplineSet
402.768 797.863 m 1
 552.104 797.863 l 1
 552.104 0.249023 l 1
 451.402 0.249023 l 1
 430.191 37.0069 l 2
 430.127 37.0069 430.064 37 430 37 c 2
 402.885 84.3369 l 1
 396.805 94.916 l 1
 457.438 94.916 l 1
 457.438 176.353 l 1
 80.0723 176.353 l 1
 80.0723 703.196 l 1
 79.6465 703.196 l 1
 45 763 l 1
 45.1198 762.999 l 1
 25 797.863 l 1
 174.739 797.863 l 1
 174.739 271.02 l 1
 457.438 271.02 l 1
 457.438 703.196 l 1
 424.024 760.989 l 2
 424.02 760.995 424.017 761.001 424 761 c 2
 424.034 761.001 l 1
 408.92 787.166 l 1
 402.768 797.863 l 1
EndSplineSet
Validated: 1
EndChar

StartChar: bar
Encoding: 124 124 82
Width: 195
VWidth: 0
Flags: W
HStem: 0 21G<50.248 144.915> 0 21G<50.248 144.915> 779.629 20G<50.248 144.915> 779.629 20G<50.248 144.915>
VStem: 50.248 94.6669<0 799.629>
LayerCount: 2
Fore
SplineSet
144.915 799.629 m 1xa8
 144.915 0 l 1
 50.248 0 l 1
 50.248 799.629 l 1
 144.915 799.629 l 1xa8
EndSplineSet
Validated: 1
EndChar

StartChar: asciitilde
Encoding: 126 126 84
Width: 815
VWidth: 0
Flags: W
HStem: 896.085 94.6669<208 608.629>
LayerCount: 2
Fore
SplineSet
608.629 896.085 m 1
 208 896.085 l 1
 208 990.752 l 1
 608.629 990.752 l 1
 608.629 896.085 l 1
EndSplineSet
Validated: 1
EndChar

StartChar: quotesingle
Encoding: 39 39 105
Width: 273
VWidth: 0
Flags: W
HStem: 864.036 94.665<50 113.806>
VStem: 128.455 94.668<974.454 1112.61>
LayerCount: 2
Fore
SplineSet
186 1112.61 m 1
 223.123 1112.61 l 1
 223.123 1011.98 l 2
 223.123 970.844 192.023 864.036 50 864.036 c 1
 50 902 l 1
 50 908.411 l 1
 50 958.701 l 1
 124.67 958.701 128.455 1003.08 128.455 1011.98 c 2
 128.455 1112.61 l 1
 178.748 1112.61 l 1
 186 1112.61 l 1
EndSplineSet
Validated: 1
EndChar

StartChar: asterisk
Encoding: 42 42 108
Width: 200
VWidth: 0
Flags: W
HStem: 318.316 138.095
VStem: 30.9443 138.096
LayerCount: 2
Fore
SplineSet
142 358 m 1
 102.1 318.316 l 1
 30.9443 389.472 l 1
 66.7539 424.785 l 1
 66.5059 425.033 l 1
 97.8838 456.411 l 1
 169.04 385.256 l 1
 141.889 358.105 l 1
 142 358 l 1
EndSplineSet
Validated: 1
EndChar

StartChar: plus
Encoding: 43 43 109
Width: 500
VWidth: 0
Flags: W
HStem: 352.085 94.667<50 202.98 297.647 450.629>
VStem: 202.98 94.667<194.104 352.085 446.752 599.732>
LayerCount: 2
Fore
SplineSet
253.272 194.104 m 1
 202.98 194.104 l 1
 202.98 352.085 l 1
 50 352.085 l 1
 50 392 l 1
 50 396.46 l 1
 50 446.752 l 1
 202.98 446.752 l 1
 202.98 599.732 l 1
 253.272 599.732 l 1
 256.355 599.732 l 1
 297.647 599.732 l 1
 297.647 446.752 l 1
 450.629 446.752 l 1
 450.629 396.46 l 1
 450.629 393 l 1
 450.629 352.085 l 1
 297.647 352.085 l 1
 297.647 194.104 l 1
 256.355 194.104 l 1
 253.272 194.104 l 1
EndSplineSet
Validated: 1
EndChar

StartChar: AE
Encoding: 198 198 111
Width: 1013
VWidth: 0
Flags: W
HStem: 3.58301 94.2041<725.699 988.387> 228.895 94.202<282.824 520.782> 384.024 94.204<596.642 700.9> 704.528 94.202<165.188 351.877 452.109 738.087>
LayerCount: 2
Fore
SplineSet
401.805 586.962 m 1
 282.824 323.097 l 1
 520.782 323.097 l 1
 401.805 586.962 l 1
988.387 3.58301 m 1
 664.82 3.58301 l 1
 563.246 228.895 l 1
 240.339 228.895 l 1
 137.423 0.615234 l 1
 34.0801 0.615234 l 1
 351.877 705.47 l 1
 165.188 705.47 l 1
 110.786 799.674 l 1
 792.466 798.73 l 1
 738.087 704.528 l 1
 452.109 704.528 l 1
 554.155 478.228 l 1
 755.279 478.228 l 1
 700.9 384.024 l 1
 596.642 384.024 l 1
 725.699 97.7871 l 1
 988.408 97.7871 l 1
 988.387 3.58301 l 1
EndSplineSet
Validated: 1
EndChar

StartChar: OE
Encoding: 338 338 112
Width: 781
VWidth: 0
Flags: W
HStem: 0.476562 94.2041<88.4814 290.736 393.559 726.475> 379.764 94.204<556.085 650.265> 702.34 94.2039<102.941 288.404 396.338 710.178>
LayerCount: 2
Fore
SplineSet
471.679 421.943 m 1
 343.891 611.622 l 1
 230.376 422.108 l 1
 343.985 197.928 l 1
 471.679 421.943 l 1
650.265 379.764 m 1
 556.085 379.764 l 1
 393.559 94.6807 l 1
 780.853 94.6807 l 1
 773.152 81.3271 l 1
 726.475 0.476562 l 1
 339.864 0.476562 l 1
 339.109 -0.818359 l 1
 338.475 0.476562 l 1
 34.0801 0.476562 l 1
 39.3301 9.54492 l 1
 88.4814 94.6807 l 1
 290.736 94.6807 l 1
 122.843 425.924 l 1
 288.404 702.34 l 1
 102.941 702.34 l 1
 48.5391 796.544 l 1
 764.581 796.544 l 1
 710.178 702.34 l 1
 396.338 702.34 l 1
 550.22 473.968 l 1
 704.667 473.968 l 1
 650.265 379.764 l 1
EndSplineSet
Validated: 1
EndChar

StartChar: ae
Encoding: 230 230 113
Width: 1013
VWidth: 0
Flags: W
HStem: 3.58301 94.2041<725.699 988.387> 228.895 94.202<282.824 520.782> 384.024 94.204<596.642 700.9> 704.528 94.202<165.188 351.877 452.109 738.087>
LayerCount: 2
Fore
SplineSet
401.805 586.962 m 1
 282.824 323.097 l 1
 520.782 323.097 l 1
 401.805 586.962 l 1
988.387 3.58301 m 1
 664.82 3.58301 l 1
 563.246 228.895 l 1
 240.339 228.895 l 1
 137.423 0.615234 l 1
 34.0801 0.615234 l 1
 351.877 705.47 l 1
 165.188 705.47 l 1
 110.786 799.674 l 1
 792.466 798.73 l 1
 738.087 704.528 l 1
 452.109 704.528 l 1
 554.155 478.228 l 1
 755.279 478.228 l 1
 700.9 384.024 l 1
 596.642 384.024 l 1
 725.699 97.7871 l 1
 988.408 97.7871 l 1
 988.387 3.58301 l 1
EndSplineSet
Validated: 1
EndChar

StartChar: oe
Encoding: 339 339 114
Width: 781
VWidth: 0
Flags: W
HStem: 0.476562 44.1582<59.5605 338.475 339.864 726.475> 50.5225 44.1582<88.4814 290.736 340.218 342.714 393.559 755.371> 379.764 44.1572<581.26 650.265> 429.81 44.1582<579.989 679.162> 702.34 44.1582<102.941 288.404 339.91 343.091 396.338 710.178> 752.387 44.1572<74.0215 739.099>
LayerCount: 2
Fore
SplineSet
471.679 421.943 m 1
 343.891 611.622 l 1
 230.376 422.108 l 1
 343.985 197.928 l 1
 471.679 421.943 l 1
650.265 379.764 m 1
 556.085 379.764 l 1
 393.559 94.6807 l 1
 780.853 94.6807 l 1
 773.152 81.3271 l 1
 726.475 0.476562 l 1
 339.864 0.476562 l 1
 339.109 -0.818359 l 1
 338.475 0.476562 l 1
 34.0801 0.476562 l 1
 39.3301 9.54492 l 1
 88.4814 94.6807 l 1
 290.736 94.6807 l 1
 122.843 425.924 l 1
 288.404 702.34 l 1
 102.941 702.34 l 1
 48.5391 796.544 l 1
 764.581 796.544 l 1
 710.178 702.34 l 1
 396.338 702.34 l 1
 550.22 473.968 l 1
 704.667 473.968 l 1
 650.265 379.764 l 1
EndSplineSet
Validated: 1
EndChar

StartChar: dieresis
Encoding: 168 168 120
Width: 815
VWidth: 0
Flags: W
HStem: 896.085 94.6669<208 356.629 459 607.629>
VStem: 208 148.629<896.085 990.752> 459 148.629<896.085 990.752>
LayerCount: 2
Fore
SplineSet
607.629 896.085 m 1
 459 896.085 l 1
 459 990.752 l 1
 607.629 990.752 l 1
 607.629 896.085 l 1
356.629 896.085 m 1
 208 896.085 l 1
 208 990.752 l 1
 356.629 990.752 l 1
 356.629 896.085 l 1
EndSplineSet
Validated: 1
EndChar

StartChar: plusminus
Encoding: 177 177 121
Width: 500
VWidth: 0
Flags: W
HStem: 111.085 94.667<50 450.629> 463.085 94.667<50 202.98 297.647 450.629>
VStem: 202.98 94.6675<305.104 463.085 557.752 710.732>
LayerCount: 2
Fore
SplineSet
50 205.752 m 5
 450.629 205.752 l 1
 450.629 111.085 l 1
 50 111.085 l 1
 50 205.752 l 5
297.647 710.732 m 1
 297.647 557.752 l 1
 450.629 557.752 l 1
 450.629 463.085 l 1
 297.647 463.085 l 1
 297.647 305.104 l 1
 202.98 305.104 l 1
 202.98 463.085 l 1
 50 463.085 l 1
 50 557.752 l 1
 202.98 557.752 l 1
 202.98 710.732 l 1
 297.647 710.732 l 1
EndSplineSet
Validated: 1
EndChar

StartChar: acute
Encoding: 180 180 122
Width: 815
VWidth: 0
Flags: W
HStem: -0.0537109 21G<24 136.866 650.362 763.229> 229.607 44.375<251.39 535.839> 279.898 44.375<274.062 513.166> 707.344 44.3262<141.859 342.884 444.295 647.615> 757.587 44.375<112.797 676.631>
LayerCount: 2
Fore
SplineSet
208 896.085 m 1
 208 940.46 l 1
 608.629 940.46 l 1
 608.629 896.085 l 1
 208 896.085 l 1
208 946.377 m 1
 208 990.752 l 1
 608.629 990.752 l 1
 608.629 946.377 l 1
 208 946.377 l 1
EndSplineSet
Validated: 1
EndChar

